<?xml version="1.0" encoding="utf-8"?>
<!-- Generator: Adobe Illustrator 25.2.0, SVG Export Plug-In . SVG Version: 6.00 Build 0)  -->
<svg version="1.1" xmlns="http://www.w3.org/2000/svg" xmlns:xlink="http://www.w3.org/1999/xlink" x="0px" y="0px"
	 viewBox="0 0 1920 1080" style="enable-background:new 0 0 1920 1080;" xml:space="preserve">
<style type="text/css">
	.st0{fill:url(#SVGID_1_);stroke:url(#SVGID_2_);stroke-miterlimit:10;}
	.st1{opacity:0.1;fill:#FFFFFF;}
	.st2{fill:#FFFFFF;}
	.st3{fill:url(#SVGID_3_);stroke:url(#SVGID_4_);stroke-miterlimit:10;}
	.st4{fill:url(#SVGID_5_);stroke:url(#SVGID_6_);stroke-miterlimit:10;}
	.st5{fill:url(#SVGID_7_);stroke:url(#SVGID_8_);stroke-miterlimit:10;}
	.st6{fill:url(#SVGID_9_);stroke:url(#SVGID_10_);stroke-miterlimit:10;}
	.st7{fill:url(#SVGID_11_);stroke:url(#SVGID_12_);stroke-miterlimit:10;}
</style>
<g id="Layer_1">
	<linearGradient id="SVGID_1_" gradientUnits="userSpaceOnUse" x1="961.9468" y1="-524.214" x2="957.1221" y2="1832.5228">
		<stop  offset="0.0492" style="stop-color:#ED1E79"/>
		<stop  offset="0.5177" style="stop-color:#742D91"/>
		<stop  offset="1" style="stop-color:#100000"/>
	</linearGradient>
	<linearGradient id="SVGID_2_" gradientUnits="userSpaceOnUse" x1="-1.0002" y1="536.7499" x2="1920" y2="536.7499">
		<stop  offset="0" style="stop-color:#ED1E79"/>
		<stop  offset="0.0381" style="stop-color:#FFFFFF"/>
		<stop  offset="0.4949" style="stop-color:#FAF8FC"/>
		<stop  offset="1" style="stop-color:#662D91"/>
	</linearGradient>
	<path class="st0" d="M-0.5,814.71c76.76,81.24,151.69,125.58,201,149.79c199.51,97.93,416.11,80.49,493,67
		c18.14-3.18,80-15.18,166.27-20.91c0,0,45.42-3.2,90.73-3.12c199.27,0.35,312.59,47.19,407,61.39
		c126.27,18.98,311.95-6.43,562-216.08c0-284.42,0-568.85,0-853.27c-408.06,0.26-816.11,0.52-1224.17,0.78
		C594.06,0.35,492.78,0.41,391.51,0.48c-11.08,0.01-22.15,0.01-33.23,0.02C239.02,0.58,119.76,0.65,0.5,0.73
		C0.17,272.06-0.17,543.39-0.5,814.71z"/>
	<path class="st1" d="M124,36c68,5,227.81,18.05,353,197c64.61,92.35,98.22,133.7,146,183c133.6,137.87,366.14,127.83,530,70
		c180.33-63.64,184.43-130.16,335-145c171.71-16.92,312.36,55.21,329,64c45.33,23.95,79.7,50.1,103,70c-1,59-2,118-3,177
		c-39.88-56.59-129.25-164.89-263-182c-92.08-11.78-164.34,24.88-246,68C926.7,792.18,864.52,755.92,776,753
		c-251.95-8.3-258.26-326.34-506-310C125.76,452.51,41.3,596.68-40,551c-51.94-29.18-75.79-120.8-45-171
		c48.26-78.69,211.17-23.72,235-81C179.03,229.22-39.97,92.86-15,48C-0.67,22.27,85.93,33.2,124,36z"/>
	<path class="st1" d="M714-19c-25.42,94.93,199.14,296.77,412,299c80.78,0.85,154.31-27.11,275-73
		c187.81-71.41,217.9-125.24,315-118c131.14,9.77,196.43,116.92,239,90c23.44-14.82,35.92-67.7-17-239
		C1019.16-161.53,738.89-111.93,714-19z"/>
	<circle class="st2" cx="1322.5" cy="740.5" r="4.5"/>
	<circle class="st2" cx="1510.5" cy="820.5" r="4.5"/>
	<linearGradient id="SVGID_3_" gradientUnits="userSpaceOnUse" x1="566.006" y1="987.0446" x2="565.9926" y2="993.6185">
		<stop  offset="0.0492" style="stop-color:#ED1E79"/>
		<stop  offset="0.5177" style="stop-color:#742D91"/>
		<stop  offset="1" style="stop-color:#100000"/>
	</linearGradient>
	<linearGradient id="SVGID_4_" gradientUnits="userSpaceOnUse" x1="564" y1="990" x2="568" y2="990">
		<stop  offset="0" style="stop-color:#ED1E79"/>
		<stop  offset="0.0381" style="stop-color:#FFFFFF"/>
		<stop  offset="0.4949" style="stop-color:#FAF8FC"/>
		<stop  offset="1" style="stop-color:#662D91"/>
	</linearGradient>
	<circle class="st3" cx="566" cy="990" r="1.5"/>
	<linearGradient id="SVGID_5_" gradientUnits="userSpaceOnUse" x1="1250.0061" y1="999.0446" x2="1249.9926" y2="1005.6185">
		<stop  offset="0.0492" style="stop-color:#ED1E79"/>
		<stop  offset="0.5177" style="stop-color:#742D91"/>
		<stop  offset="1" style="stop-color:#100000"/>
	</linearGradient>
	<linearGradient id="SVGID_6_" gradientUnits="userSpaceOnUse" x1="1248" y1="1002" x2="1252" y2="1002">
		<stop  offset="0" style="stop-color:#ED1E79"/>
		<stop  offset="0.0381" style="stop-color:#FFFFFF"/>
		<stop  offset="0.4949" style="stop-color:#FAF8FC"/>
		<stop  offset="1" style="stop-color:#662D91"/>
	</linearGradient>
	<circle class="st4" cx="1250" cy="1002" r="1.5"/>
	<linearGradient id="SVGID_7_" gradientUnits="userSpaceOnUse" x1="1464.0061" y1="1046.0447" x2="1463.9926" y2="1052.6185">
		<stop  offset="0.0492" style="stop-color:#ED1E79"/>
		<stop  offset="0.5177" style="stop-color:#742D91"/>
		<stop  offset="1" style="stop-color:#100000"/>
	</linearGradient>
	<linearGradient id="SVGID_8_" gradientUnits="userSpaceOnUse" x1="1462" y1="1049" x2="1466" y2="1049">
		<stop  offset="0" style="stop-color:#ED1E79"/>
		<stop  offset="0.0381" style="stop-color:#FFFFFF"/>
		<stop  offset="0.4949" style="stop-color:#FAF8FC"/>
		<stop  offset="1" style="stop-color:#662D91"/>
	</linearGradient>
	<circle class="st5" cx="1464" cy="1049" r="1.5"/>
	<linearGradient id="SVGID_9_" gradientUnits="userSpaceOnUse" x1="329.006" y1="927.0446" x2="328.9926" y2="933.6185">
		<stop  offset="0.0492" style="stop-color:#ED1E79"/>
		<stop  offset="0.5177" style="stop-color:#742D91"/>
		<stop  offset="1" style="stop-color:#100000"/>
	</linearGradient>
	<linearGradient id="SVGID_10_" gradientUnits="userSpaceOnUse" x1="327" y1="930" x2="331" y2="930">
		<stop  offset="0" style="stop-color:#ED1E79"/>
		<stop  offset="0.0381" style="stop-color:#FFFFFF"/>
		<stop  offset="0.4949" style="stop-color:#FAF8FC"/>
		<stop  offset="1" style="stop-color:#662D91"/>
	</linearGradient>
	<circle class="st6" cx="329" cy="930" r="1.5"/>
	<linearGradient id="SVGID_11_" gradientUnits="userSpaceOnUse" x1="1705.0061" y1="940.0446" x2="1704.9926" y2="946.6185">
		<stop  offset="0.0492" style="stop-color:#ED1E79"/>
		<stop  offset="0.5177" style="stop-color:#742D91"/>
		<stop  offset="1" style="stop-color:#100000"/>
	</linearGradient>
	<linearGradient id="SVGID_12_" gradientUnits="userSpaceOnUse" x1="1703" y1="943" x2="1707" y2="943">
		<stop  offset="0" style="stop-color:#ED1E79"/>
		<stop  offset="0.0381" style="stop-color:#FFFFFF"/>
		<stop  offset="0.4949" style="stop-color:#FAF8FC"/>
		<stop  offset="1" style="stop-color:#662D91"/>
	</linearGradient>
	<circle class="st7" cx="1705" cy="943" r="1.5"/>
</g>
<g id="Layer_2">
</g>
<g id="Layer_3">
	<circle class="st2" cx="1018" cy="777" r="5"/>
	<circle class="st2" cx="827.5" cy="871.5" r="4.5"/>
	<circle class="st2" cx="946" cy="664" r="3"/>
	<circle class="st2" cx="1003.5" cy="662.5" r="1.5"/>
	<circle class="st2" cx="797" cy="580" r="3"/>
	<circle class="st2" cx="620.5" cy="876.5" r="4.5"/>
	<circle class="st2" cx="919.5" cy="559.5" r="1.5"/>
	<circle class="st2" cx="1053.5" cy="545.5" r="1.5"/>
	<circle class="st2" cx="860.5" cy="629.5" r="1.5"/>
	<circle class="st2" cx="714.5" cy="664.5" r="4.5"/>
	<circle class="st2" cx="1389.5" cy="954.5" r="4.5"/>
	<circle class="st2" cx="1157.5" cy="881.5" r="4.5"/>
	<circle class="st2" cx="332.5" cy="811.5" r="4.5"/>
	<circle class="st2" cx="514.5" cy="761.5" r="4.5"/>
	<circle class="st2" cx="328.5" cy="626.5" r="4.5"/>
	<circle class="st2" cx="1727.5" cy="609.5" r="4.5"/>
	<circle class="st2" cx="1184" cy="732" r="3"/>
	<circle class="st2" cx="658" cy="550" r="3"/>
	<circle class="st2" cx="807" cy="735" r="3"/>
	<circle class="st2" cx="1038" cy="599" r="3"/>
	<circle class="st2" cx="1232" cy="511" r="3"/>
	<circle class="st2" cx="1436.3" cy="533.46" r="3"/>
	<circle class="st2" cx="1492" cy="452" r="3"/>
	<circle class="st2" cx="1516" cy="672" r="3"/>
	<circle class="st2" cx="1591" cy="530" r="3"/>
	<circle class="st2" cx="1716" cy="422" r="3"/>
	<circle class="st2" cx="449.5" cy="377.5" r="1.5"/>
	<circle class="st2" cx="513.35" cy="441.88" r="1.5"/>
	<circle class="st2" cx="435.5" cy="453.5" r="1.5"/>
	<circle class="st2" cx="340.5" cy="337.5" r="1.5"/>
	<circle class="st2" cx="346.5" cy="488.5" r="1.5"/>
	<circle class="st2" cx="171.5" cy="397.5" r="1.5"/>
	<circle class="st2" cx="206.5" cy="325.5" r="1.5"/>
	<circle class="st2" cx="58.5" cy="359.5" r="1.5"/>
	<circle class="st2" cx="157" cy="562" r="3"/>
	<circle class="st2" cx="200" cy="679" r="3"/>
	<circle class="st2" cx="639.5" cy="163.5" r="1.5"/>
	<circle class="st2" cx="1156.5" cy="245.5" r="1.5"/>
	<circle class="st2" cx="851.5" cy="259.5" r="1.5"/>
	<circle class="st2" cx="1430.5" cy="265.5" r="1.5"/>
	<circle class="st2" cx="1589.5" cy="159.5" r="1.5"/>
	<circle class="st2" cx="1882.5" cy="83.5" r="1.5"/>
	<circle class="st2" cx="1882.5" cy="262.5" r="1.5"/>
	<circle class="st2" cx="285.5" cy="127.5" r="1.5"/>
	<circle class="st2" cx="100.5" cy="95.5" r="1.5"/>
	<circle class="st2" cx="58.5" cy="248.5" r="1.5"/>
	<circle class="st2" cx="392.5" cy="708.5" r="1.5"/>
	<circle class="st2" cx="480.5" cy="619.5" r="1.5"/>
	<circle class="st2" cx="1402.5" cy="643.5" r="1.5"/>
	<circle class="st2" cx="1657.5" cy="741.5" r="1.5"/>
	<circle class="st2" cx="1345.5" cy="826.5" r="1.5"/>
	<circle class="st2" cx="1066.5" cy="128.5" r="1.5"/>
	<circle class="st2" cx="1003.5" cy="927.5" r="1.5"/>
	<circle class="st2" cx="720.5" cy="972.5" r="1.5"/>
	<circle class="st2" cx="1560.5" cy="965.5" r="1.5"/>
	<circle class="st2" cx="1767.5" cy="850.5" r="1.5"/>
	<circle class="st2" cx="1812.5" cy="746.5" r="1.5"/>
	<circle class="st2" cx="452.5" cy="903.5" r="1.5"/>
	<circle class="st2" cx="188.5" cy="812.5" r="1.5"/>
	<circle class="st2" cx="1250.5" cy="632.5" r="1.5"/>
	<circle class="st2" cx="61.5" cy="746.5" r="1.5"/>
	<circle class="st2" cx="64.5" cy="630.5" r="1.5"/>
	<circle class="st2" cx="1885.5" cy="573.5" r="1.5"/>
	<circle class="st2" cx="699.5" cy="773.5" r="1.5"/>
	<circle class="st2" cx="939.5" cy="813.5" r="1.5"/>
</g>
</svg>
